<mxfile host="app.diagrams.net" modified="2022-05-05T09:56:38.830Z" agent="5.0 (Windows NT 10.0; Win64; x64) AppleWebKit/537.36 (KHTML, like Gecko) Chrome/100.0.4896.127 Safari/537.36" etag="fvZWAvQ7GrxE3M3mB8q3" version="17.4.6" type="github">
  <diagram name="Page-1" id="13e1069c-82ec-6db2-03f1-153e76fe0fe0">
    <mxGraphModel dx="1697" dy="917" grid="1" gridSize="10" guides="1" tooltips="1" connect="1" arrows="1" fold="1" page="1" pageScale="1" pageWidth="1920" pageHeight="1200" background="none" math="0" shadow="0">
      <root>
        <mxCell id="0" />
        <mxCell id="1" parent="0" />
        <mxCell id="7baba1c4bc27f4b0-2" value="SRM前端" style="shape=umlLifeline;perimeter=lifelinePerimeter;whiteSpace=wrap;html=1;container=1;collapsible=0;recursiveResize=0;outlineConnect=0;rounded=1;shadow=0;comic=0;labelBackgroundColor=none;strokeWidth=1;fontFamily=Verdana;fontSize=12;align=center;fillColor=#fad7ac;strokeColor=#b46504;" parent="1" vertex="1">
          <mxGeometry x="440" y="80" width="100" height="690" as="geometry" />
        </mxCell>
        <mxCell id="7baba1c4bc27f4b0-10" value="" style="html=1;points=[];perimeter=orthogonalPerimeter;rounded=0;shadow=0;comic=0;labelBackgroundColor=none;strokeWidth=1;fontFamily=Verdana;fontSize=12;align=center;" parent="7baba1c4bc27f4b0-2" vertex="1">
          <mxGeometry x="45" y="100" width="10" height="500" as="geometry" />
        </mxCell>
        <mxCell id="7baba1c4bc27f4b0-3" value="SRM后端" style="shape=umlLifeline;perimeter=lifelinePerimeter;whiteSpace=wrap;html=1;container=1;collapsible=0;recursiveResize=0;outlineConnect=0;rounded=1;shadow=0;comic=0;labelBackgroundColor=none;strokeWidth=1;fontFamily=Verdana;fontSize=12;align=center;fillColor=#fad9d5;strokeColor=#ae4132;" parent="1" vertex="1">
          <mxGeometry x="740" y="80" width="100" height="690" as="geometry" />
        </mxCell>
        <mxCell id="7baba1c4bc27f4b0-13" value="" style="html=1;points=[];perimeter=orthogonalPerimeter;rounded=0;shadow=0;comic=0;labelBackgroundColor=none;strokeWidth=1;fontFamily=Verdana;fontSize=12;align=center;" parent="7baba1c4bc27f4b0-3" vertex="1">
          <mxGeometry x="45" y="100" width="10" height="500" as="geometry" />
        </mxCell>
        <mxCell id="7baba1c4bc27f4b0-4" value="API网关" style="shape=umlLifeline;perimeter=lifelinePerimeter;whiteSpace=wrap;html=1;container=1;collapsible=0;recursiveResize=0;outlineConnect=0;rounded=1;shadow=0;comic=0;labelBackgroundColor=none;strokeWidth=1;fontFamily=Verdana;fontSize=12;align=center;fillColor=#647687;strokeColor=#314354;fontColor=#ffffff;" parent="1" vertex="1">
          <mxGeometry x="1060" y="80" width="100" height="580" as="geometry" />
        </mxCell>
        <mxCell id="7baba1c4bc27f4b0-5" value="ULP" style="shape=umlLifeline;perimeter=lifelinePerimeter;whiteSpace=wrap;html=1;container=1;collapsible=0;recursiveResize=0;outlineConnect=0;rounded=1;shadow=0;comic=0;labelBackgroundColor=none;strokeWidth=1;fontFamily=Verdana;fontSize=12;align=center;fillColor=#1ba1e2;strokeColor=#006EAF;fontColor=#ffffff;" parent="1" vertex="1">
          <mxGeometry x="1200" y="80" width="100" height="580" as="geometry" />
        </mxCell>
        <mxCell id="7baba1c4bc27f4b0-8" value="ULP登录" style="shape=umlLifeline;perimeter=lifelinePerimeter;whiteSpace=wrap;html=1;container=1;collapsible=0;recursiveResize=0;outlineConnect=0;rounded=1;shadow=0;comic=0;labelBackgroundColor=none;strokeWidth=1;fontFamily=Verdana;fontSize=12;align=center;fillColor=#1ba1e2;strokeColor=#006EAF;fontColor=#ffffff;" parent="1" vertex="1">
          <mxGeometry x="180" y="80" width="100" height="320" as="geometry" />
        </mxCell>
        <mxCell id="7baba1c4bc27f4b0-9" value="" style="html=1;points=[];perimeter=orthogonalPerimeter;rounded=0;shadow=0;comic=0;labelBackgroundColor=none;strokeWidth=1;fontFamily=Verdana;fontSize=12;align=center;" parent="7baba1c4bc27f4b0-8" vertex="1">
          <mxGeometry x="45" y="100" width="10" height="70" as="geometry" />
        </mxCell>
        <mxCell id="7baba1c4bc27f4b0-16" value="" style="html=1;points=[];perimeter=orthogonalPerimeter;rounded=0;shadow=0;comic=0;labelBackgroundColor=none;strokeWidth=1;fontFamily=Verdana;fontSize=12;align=center;" parent="1" vertex="1">
          <mxGeometry x="1105" y="180" width="10" height="270" as="geometry" />
        </mxCell>
        <mxCell id="7baba1c4bc27f4b0-17" value="" style="html=1;verticalAlign=bottom;endArrow=block;labelBackgroundColor=none;fontFamily=Verdana;fontSize=12;edgeStyle=elbowEdgeStyle;elbow=vertical;" parent="1" source="7baba1c4bc27f4b0-13" target="7baba1c4bc27f4b0-16" edge="1">
          <mxGeometry relative="1" as="geometry">
            <mxPoint x="850" y="220" as="sourcePoint" />
            <Array as="points">
              <mxPoint x="800" y="220" />
            </Array>
          </mxGeometry>
        </mxCell>
        <mxCell id="RFSvrGeNP7GwLWuECoFu-15" value="&lt;pre style=&quot;font-family: &amp;#34;source code pro&amp;#34; , monospace ; font-size: 10.5pt&quot;&gt;&lt;span style=&quot;background-color: rgb(255 , 255 , 255)&quot;&gt;&lt;font color=&quot;#ff8000&quot;&gt;3.&lt;/font&gt;/ulp/api/auth/authenticate&lt;/span&gt;&lt;/pre&gt;" style="edgeLabel;html=1;align=center;verticalAlign=middle;resizable=0;points=[];labelBackgroundColor=none;fontStyle=1" parent="7baba1c4bc27f4b0-17" vertex="1" connectable="0">
          <mxGeometry x="-0.0959" y="-4" relative="1" as="geometry">
            <mxPoint x="4" y="-4" as="offset" />
          </mxGeometry>
        </mxCell>
        <mxCell id="7baba1c4bc27f4b0-19" value="" style="html=1;points=[];perimeter=orthogonalPerimeter;rounded=0;shadow=0;comic=0;labelBackgroundColor=none;strokeWidth=1;fontFamily=Verdana;fontSize=12;align=center;" parent="1" vertex="1">
          <mxGeometry x="1245" y="230" width="10" height="40" as="geometry" />
        </mxCell>
        <mxCell id="7baba1c4bc27f4b0-20" value="dispatch" style="html=1;verticalAlign=bottom;endArrow=block;entryX=0;entryY=0;labelBackgroundColor=none;fontFamily=Verdana;fontSize=12;edgeStyle=elbowEdgeStyle;elbow=vertical;" parent="1" source="7baba1c4bc27f4b0-16" target="7baba1c4bc27f4b0-19" edge="1">
          <mxGeometry y="10" relative="1" as="geometry">
            <mxPoint x="1170" y="230" as="sourcePoint" />
            <mxPoint as="offset" />
          </mxGeometry>
        </mxCell>
        <mxCell id="7baba1c4bc27f4b0-21" value="return" style="html=1;verticalAlign=bottom;endArrow=open;dashed=1;endSize=8;labelBackgroundColor=none;fontFamily=Verdana;fontSize=12;edgeStyle=elbowEdgeStyle;elbow=vertical;" parent="1" source="7baba1c4bc27f4b0-19" target="7baba1c4bc27f4b0-16" edge="1">
          <mxGeometry relative="1" as="geometry">
            <mxPoint x="1170" y="306" as="targetPoint" />
            <Array as="points">
              <mxPoint x="1170" y="270" />
              <mxPoint x="1220" y="260" />
            </Array>
          </mxGeometry>
        </mxCell>
        <mxCell id="RFSvrGeNP7GwLWuECoFu-20" style="edgeStyle=orthogonalEdgeStyle;rounded=0;orthogonalLoop=1;jettySize=auto;html=1;" parent="1" source="7baba1c4bc27f4b0-28" edge="1">
          <mxGeometry relative="1" as="geometry">
            <mxPoint x="500" y="350" as="targetPoint" />
            <Array as="points" />
          </mxGeometry>
        </mxCell>
        <mxCell id="7baba1c4bc27f4b0-28" value="&lt;span style=&quot;background-color: rgb(255 , 255 , 255)&quot;&gt;&lt;font style=&quot;font-size: 17px&quot;&gt;shiro&lt;/font&gt;&lt;/span&gt;" style="html=1;points=[];perimeter=orthogonalPerimeter;rounded=0;shadow=0;comic=0;labelBackgroundColor=none;strokeWidth=1;fontFamily=Verdana;fontSize=12;align=center;" parent="1" vertex="1">
          <mxGeometry x="790" y="320" width="10" height="60" as="geometry" />
        </mxCell>
        <mxCell id="7baba1c4bc27f4b0-11" value="&lt;pre style=&quot;font-family: &amp;#34;source code pro&amp;#34; , monospace ; font-size: 10.5pt&quot;&gt;&lt;br&gt;&lt;/pre&gt;" style="html=1;verticalAlign=bottom;endArrow=block;entryX=0;entryY=0;labelBackgroundColor=none;fontFamily=Verdana;fontSize=12;edgeStyle=elbowEdgeStyle;elbow=vertical;" parent="1" source="7baba1c4bc27f4b0-9" target="7baba1c4bc27f4b0-10" edge="1">
          <mxGeometry x="-0.56" y="10" relative="1" as="geometry">
            <mxPoint x="340" y="190" as="sourcePoint" />
            <mxPoint as="offset" />
          </mxGeometry>
        </mxCell>
        <mxCell id="RFSvrGeNP7GwLWuECoFu-11" value="&lt;pre style=&quot;background-color: rgb(248 , 249 , 250) ; font-family: &amp;#34;source code pro&amp;#34; , monospace ; font-size: 10.5pt&quot;&gt;&lt;b&gt;&lt;font color=&quot;#ff8000&quot;&gt;1.&lt;/font&gt;/srm/userManage/user/login&lt;/b&gt;&lt;/pre&gt;" style="edgeLabel;html=1;align=center;verticalAlign=middle;resizable=0;points=[];" parent="7baba1c4bc27f4b0-11" vertex="1" connectable="0">
          <mxGeometry x="0.0891" y="4" relative="1" as="geometry">
            <mxPoint x="-11" y="4" as="offset" />
          </mxGeometry>
        </mxCell>
        <mxCell id="7baba1c4bc27f4b0-14" value="" style="html=1;verticalAlign=bottom;endArrow=block;entryX=0;entryY=0;labelBackgroundColor=none;fontFamily=Verdana;fontSize=12;edgeStyle=elbowEdgeStyle;elbow=vertical;" parent="1" source="7baba1c4bc27f4b0-10" target="7baba1c4bc27f4b0-13" edge="1">
          <mxGeometry relative="1" as="geometry">
            <mxPoint x="570" y="200" as="sourcePoint" />
          </mxGeometry>
        </mxCell>
        <mxCell id="RFSvrGeNP7GwLWuECoFu-10" value="&lt;pre style=&quot;background-color: rgb(248 , 249 , 250)&quot;&gt;&lt;font face=&quot;source code pro, monospace&quot;&gt;&lt;span style=&quot;font-size: 14px&quot;&gt;&lt;b&gt;&lt;font color=&quot;#ff8000&quot;&gt;2.&lt;/font&gt;UserManageController#userLogin&lt;/b&gt;&lt;/span&gt;&lt;/font&gt;&lt;b style=&quot;font-family: &amp;#34;source code pro&amp;#34; , monospace ; font-size: 10.5pt&quot;&gt;&lt;br&gt;&lt;/b&gt;&lt;/pre&gt;&lt;pre style=&quot;background-color: rgb(248 , 249 , 250) ; font-family: &amp;#34;source code pro&amp;#34; , monospace ; font-size: 10.5pt&quot;&gt;&lt;b&gt;/srm/userManage/user/login&lt;/b&gt;&lt;/pre&gt;" style="edgeLabel;html=1;align=center;verticalAlign=middle;resizable=0;points=[];" parent="7baba1c4bc27f4b0-14" vertex="1" connectable="0">
          <mxGeometry x="0.0952" y="4" relative="1" as="geometry">
            <mxPoint x="-14" as="offset" />
          </mxGeometry>
        </mxCell>
        <mxCell id="7baba1c4bc27f4b0-34" value="" style="html=1;points=[];perimeter=orthogonalPerimeter;rounded=0;shadow=0;comic=0;labelBackgroundColor=none;strokeWidth=1;fontFamily=Verdana;fontSize=12;align=center;" parent="1" vertex="1">
          <mxGeometry x="1110" y="300" width="10" height="70" as="geometry" />
        </mxCell>
        <mxCell id="RFSvrGeNP7GwLWuECoFu-22" style="edgeStyle=orthogonalEdgeStyle;rounded=0;orthogonalLoop=1;jettySize=auto;html=1;" parent="1" source="RFSvrGeNP7GwLWuECoFu-1" edge="1">
          <mxGeometry relative="1" as="geometry">
            <mxPoint x="221" y="210" as="targetPoint" />
          </mxGeometry>
        </mxCell>
        <mxCell id="RFSvrGeNP7GwLWuECoFu-23" style="edgeStyle=orthogonalEdgeStyle;rounded=0;orthogonalLoop=1;jettySize=auto;html=1;" parent="1" source="RFSvrGeNP7GwLWuECoFu-1" edge="1">
          <mxGeometry relative="1" as="geometry">
            <mxPoint x="480" y="439" as="targetPoint" />
            <Array as="points">
              <mxPoint x="105" y="439" />
            </Array>
          </mxGeometry>
        </mxCell>
        <mxCell id="RFSvrGeNP7GwLWuECoFu-24" value="业务操作" style="edgeLabel;html=1;align=center;verticalAlign=middle;resizable=0;points=[];" parent="RFSvrGeNP7GwLWuECoFu-23" vertex="1" connectable="0">
          <mxGeometry x="0.2508" y="-1" relative="1" as="geometry">
            <mxPoint x="-89" as="offset" />
          </mxGeometry>
        </mxCell>
        <mxCell id="RFSvrGeNP7GwLWuECoFu-1" value="Actor" style="shape=umlActor;verticalLabelPosition=bottom;verticalAlign=top;html=1;outlineConnect=0;" parent="1" vertex="1">
          <mxGeometry x="90" y="180" width="30" height="60" as="geometry" />
        </mxCell>
        <mxCell id="RFSvrGeNP7GwLWuECoFu-18" value="&lt;font color=&quot;#ff9933&quot;&gt;4.&lt;/font&gt;return userInfo" style="html=1;verticalAlign=bottom;endArrow=open;dashed=1;endSize=8;labelBackgroundColor=none;fontFamily=Verdana;fontSize=12;edgeStyle=elbowEdgeStyle;elbow=vertical;" parent="1" edge="1">
          <mxGeometry relative="1" as="geometry">
            <mxPoint x="805" y="270" as="targetPoint" />
            <Array as="points">
              <mxPoint x="805" y="270" />
              <mxPoint x="815" y="265" />
              <mxPoint x="1045" y="265" />
              <mxPoint x="1075" y="265" />
            </Array>
            <mxPoint x="1100" y="270" as="sourcePoint" />
          </mxGeometry>
        </mxCell>
        <mxCell id="RFSvrGeNP7GwLWuECoFu-19" value="&lt;font color=&quot;#ff9933&quot;&gt;5.&lt;/font&gt;shiro login by username&lt;br&gt;" style="html=1;verticalAlign=bottom;endArrow=block;labelBackgroundColor=none;fontFamily=Verdana;fontSize=12;elbow=vertical;edgeStyle=orthogonalEdgeStyle;curved=1;entryX=1.014;entryY=0.331;entryPerimeter=0;exitX=1.038;exitY=0.345;exitPerimeter=0;entryDx=0;entryDy=0;" parent="1" target="7baba1c4bc27f4b0-28" edge="1">
          <mxGeometry x="0.1192" y="85" relative="1" as="geometry">
            <mxPoint x="800.0000000000001" y="279.9999999999999" as="sourcePoint" />
            <mxPoint x="804.62" y="317.91999999999996" as="targetPoint" />
            <Array as="points">
              <mxPoint x="855" y="280" />
              <mxPoint x="855" y="340" />
            </Array>
            <mxPoint as="offset" />
          </mxGeometry>
        </mxCell>
        <mxCell id="RFSvrGeNP7GwLWuECoFu-25" value="" style="html=1;points=[];perimeter=orthogonalPerimeter;rounded=0;shadow=0;comic=0;labelBackgroundColor=none;strokeWidth=1;fontFamily=Verdana;fontSize=12;align=center;" parent="1" vertex="1">
          <mxGeometry x="790" y="490" width="10" height="70" as="geometry" />
        </mxCell>
        <mxCell id="RFSvrGeNP7GwLWuECoFu-28" value="shiro基于JSESSIONID鉴权" style="html=1;verticalAlign=bottom;endArrow=block;labelBackgroundColor=none;fontFamily=Verdana;fontSize=12;elbow=vertical;edgeStyle=orthogonalEdgeStyle;curved=1;entryX=1.014;entryY=0.331;entryPerimeter=0;exitX=1.038;exitY=0.345;exitPerimeter=0;entryDx=0;entryDy=0;" parent="1" edge="1">
          <mxGeometry x="0.0598" y="85" relative="1" as="geometry">
            <mxPoint x="800" y="445.05" as="sourcePoint" />
            <mxPoint x="800.1399999999999" y="504.9099999999999" as="targetPoint" />
            <Array as="points">
              <mxPoint x="855" y="445.05" />
              <mxPoint x="855" y="505.05" />
            </Array>
            <mxPoint as="offset" />
          </mxGeometry>
        </mxCell>
        <mxCell id="RFSvrGeNP7GwLWuECoFu-29" style="edgeStyle=orthogonalEdgeStyle;rounded=0;orthogonalLoop=1;jettySize=auto;html=1;" parent="1" edge="1">
          <mxGeometry relative="1" as="geometry">
            <mxPoint x="510" y="440" as="sourcePoint" />
            <mxPoint x="780" y="440" as="targetPoint" />
            <Array as="points">
              <mxPoint x="494" y="440" />
            </Array>
          </mxGeometry>
        </mxCell>
        <mxCell id="RFSvrGeNP7GwLWuECoFu-30" value="前端带着cookie中的JSESSIONID" style="edgeLabel;html=1;align=center;verticalAlign=middle;resizable=0;points=[];" parent="RFSvrGeNP7GwLWuECoFu-29" vertex="1" connectable="0">
          <mxGeometry x="0.2508" y="-1" relative="1" as="geometry">
            <mxPoint x="-37" as="offset" />
          </mxGeometry>
        </mxCell>
        <mxCell id="RFSvrGeNP7GwLWuECoFu-31" value="" style="html=1;points=[];perimeter=orthogonalPerimeter;rounded=0;shadow=0;comic=0;labelBackgroundColor=none;strokeWidth=1;fontFamily=Verdana;fontSize=12;align=center;" parent="1" vertex="1">
          <mxGeometry x="790" y="580" width="10" height="70" as="geometry" />
        </mxCell>
        <mxCell id="RFSvrGeNP7GwLWuECoFu-32" value="业务controller" style="html=1;verticalAlign=bottom;endArrow=block;labelBackgroundColor=none;fontFamily=Verdana;fontSize=12;elbow=vertical;edgeStyle=orthogonalEdgeStyle;curved=1;entryX=1.014;entryY=0.331;entryPerimeter=0;exitX=1.038;exitY=0.345;exitPerimeter=0;entryDx=0;entryDy=0;" parent="1" edge="1">
          <mxGeometry x="0.1192" y="45" relative="1" as="geometry">
            <mxPoint x="800" y="570" as="sourcePoint" />
            <mxPoint x="800.1399999999999" y="629.8599999999999" as="targetPoint" />
            <Array as="points">
              <mxPoint x="855" y="570" />
              <mxPoint x="855" y="630" />
            </Array>
            <mxPoint as="offset" />
          </mxGeometry>
        </mxCell>
        <mxCell id="RFSvrGeNP7GwLWuECoFu-33" style="edgeStyle=orthogonalEdgeStyle;rounded=0;orthogonalLoop=1;jettySize=auto;html=1;entryX=0.943;entryY=0.949;entryDx=0;entryDy=0;entryPerimeter=0;" parent="1" target="7baba1c4bc27f4b0-10" edge="1">
          <mxGeometry relative="1" as="geometry">
            <mxPoint x="781" y="655" as="sourcePoint" />
            <mxPoint x="560" y="664" as="targetPoint" />
          </mxGeometry>
        </mxCell>
        <mxCell id="RFSvrGeNP7GwLWuECoFu-34" value="return" style="edgeLabel;html=1;align=center;verticalAlign=middle;resizable=0;points=[];" parent="RFSvrGeNP7GwLWuECoFu-33" vertex="1" connectable="0">
          <mxGeometry x="-0.0814" y="-2" relative="1" as="geometry">
            <mxPoint as="offset" />
          </mxGeometry>
        </mxCell>
      </root>
    </mxGraphModel>
  </diagram>
</mxfile>
